<?xml version="1.0" standalone="no"?>
<!DOCTYPE svg PUBLIC "-//W3C//DTD SVG 20010904//EN"
 "http://www.w3.org/TR/2001/REC-SVG-20010904/DTD/svg10.dtd">
<svg version="1.0" xmlns="http://www.w3.org/2000/svg"
 width="512.000000pt" height="512.000000pt" viewBox="0 0 512.000000 512.000000"
 preserveAspectRatio="xMidYMid meet">
<metadata>
Created by potrace 1.11, written by Peter Selinger 2001-2013
</metadata>
<g transform="translate(0.000000,512.000000) scale(0.100000,-0.100000)"
fill="#000000" stroke="none">
<path d="M2245 4510 c-277 -8 -341 -12 -595 -41 -191 -22 -341 -49 -408 -73
-93 -33 -197 -125 -281 -249 -53 -77 -146 -282 -196 -427 -43 -127 -145 -514
-145 -552 0 -9 -4 -28 -9 -41 -10 -25 -10 -25 -53 -10 -33 11 -83 14 -223 11
-170 -3 -182 -4 -225 -28 -66 -38 -103 -96 -108 -173 -3 -56 0 -67 30 -117 26
-43 45 -61 87 -82 48 -25 66 -28 152 -28 l97 0 -24 -64 c-13 -36 -31 -106 -41
-158 -16 -85 -18 -176 -18 -1108 l0 -1015 23 -46 c28 -58 80 -112 135 -142 41
-21 51 -22 337 -22 294 0 295 0 343 25 93 47 157 150 157 254 l0 59 38 -6 c20
-3 116 -14 212 -24 154 -16 280 -18 1030 -18 750 0 876 2 1030 18 96 10 192
21 213 24 l37 6 0 -59 c0 -104 64 -207 157 -254 48 -25 49 -25 343 -25 286 0
296 1 337 22 55 30 107 84 135 142 l23 46 0 1030 c0 959 -1 1036 -18 1115 -10
47 -29 111 -42 143 l-23 57 97 0 c86 0 104 3 152 28 42 21 61 39 87 82 30 50
33 61 30 117 -5 77 -42 135 -108 173 -43 24 -55 25 -225 28 -140 3 -190 0
-223 -11 -50 -17 -44 -26 -72 103 -107 490 -239 826 -404 1024 -52 62 -149
131 -218 155 -234 80 -949 129 -1623 111z m995 -410 c393 -37 649 -119 779
-249 32 -32 67 -78 79 -102 15 -30 46 -175 93 -437 39 -216 70 -394 68 -396
-2 -2 -71 2 -154 10 -559 50 -1360 72 -1993 56 -446 -12 -813 -31 -1097 -56
-82 -8 -152 -12 -154 -10 -2 2 29 180 68 396 47 262 78 407 93 437 12 24 47
70 77 100 151 151 457 236 941 261 208 11 1056 4 1200 -10z m-1950 -1858 c258
-102 348 -426 180 -648 -45 -60 -109 -108 -184 -137 -72 -29 -305 -36 -395
-13 -122 31 -217 109 -274 226 -30 61 -32 70 -32 180 0 109 2 118 32 180 41
83 108 152 185 191 84 42 122 48 288 45 121 -2 154 -6 200 -24z m2922 17 c127
-27 233 -110 291 -229 30 -62 32 -71 32 -180 0 -110 -2 -119 -32 -180 -56
-115 -151 -194 -269 -225 -78 -20 -280 -20 -359 1 -161 41 -275 167 -306 337
-38 205 98 416 301 471 67 18 267 21 342 5z"/>
</g>
</svg>
